HIERARCHY
ROOT hip
{
	OFFSET 0.00000 0.00000 0.00000
	CHANNELS 6 Xposition Yposition Zposition Zrotation Yrotation Xrotation 
	JOINT lhipjoint
	{
		OFFSET 0 0 0
		CHANNELS 3 Zrotation Yrotation Xrotation
		JOINT lfemur
		{
			OFFSET 1.65674 -1.80282 0.62477
			CHANNELS 3 Zrotation Yrotation Xrotation
			JOINT ltibia
			{
				OFFSET 2.59720 -7.13576 0.00000
				CHANNELS 3 Zrotation Yrotation Xrotation
				JOINT lfoot
				{
					OFFSET 2.49236 -6.84770 0.00000
					CHANNELS 3 Zrotation Yrotation Xrotation
					JOINT ltoes
					{
						OFFSET 0.19704 -0.54136 2.14581
						CHANNELS 3 Zrotation Yrotation Xrotation
						End Site
						{
							OFFSET 0.00000 -0.00000 1.11249
						}
					}
				}
			}
		}
	}
	JOINT rhipjoint
	{
		OFFSET 0 0 0
		CHANNELS 3 Zrotation Yrotation Xrotation
		JOINT rfemur
		{
			OFFSET -1.61070 -1.80282 0.62476
			CHANNELS 3 Zrotation Yrotation Xrotation
			JOINT rtibia
			{
				OFFSET -2.59502 -7.12977 0.00000
				CHANNELS 3 Zrotation Yrotation Xrotation
				JOINT rfoot
				{
					OFFSET -2.46780 -6.78024 0.00000
					CHANNELS 3 Zrotation Yrotation Xrotation
					JOINT rtoes
					{
						OFFSET -0.23024 -0.63258 2.13368
						CHANNELS 3 Zrotation Yrotation Xrotation
						End Site
						{
							OFFSET -0.00000 -0.00000 1.11569
						}
					}
				}
			}
		}
	}
	JOINT lowerback
	{
		OFFSET 0 0 0
		CHANNELS 3 Zrotation Yrotation Xrotation
		JOINT upperback
		{
			OFFSET 0.01961 2.05450 -0.14112
			CHANNELS 3 Zrotation Yrotation Xrotation
			JOINT thorax
			{
				OFFSET 0.01021 2.06436 -0.05921
				CHANNELS 3 Zrotation Yrotation Xrotation
				JOINT lowerneck
				{
					OFFSET 0 0 0
					CHANNELS 3 Zrotation Yrotation Xrotation
					JOINT upperneck
					{
						OFFSET 0.00713 1.56711 0.14968
						CHANNELS 3 Zrotation Yrotation Xrotation
						JOINT head
						{
							OFFSET 0.03429 1.56041 -0.10006
							CHANNELS 3 Zrotation Yrotation Xrotation
							End Site
							{
								OFFSET 0.01305 1.62560 -0.05265
							}
						}
					}
				}
				JOINT lclavicle
				{
					OFFSET 0 0 0
					CHANNELS 3 Zrotation Yrotation Xrotation
					JOINT lhumerus
					{
						OFFSET 3.54205 0.90436 -0.17364
						CHANNELS 3 Zrotation Yrotation Xrotation
						JOINT lradius
						{
							OFFSET 4.86513 -0.00000 -0.00000
							CHANNELS 3 Zrotation Yrotation Xrotation
							JOINT lwrist
							{
								OFFSET 3.35554 -0.00000 0.00000
								CHANNELS 3 Zrotation Yrotation Xrotation
								JOINT lhand
								{
									OFFSET 0 0 0
									CHANNELS 3 Zrotation Yrotation Xrotation
									JOINT lfingers
									{
										OFFSET 0.66117 -0.00000 0.00000
										CHANNELS 3 Zrotation Yrotation Xrotation
										End Site
										{
											OFFSET 0.53306 -0.00000 0.00000
										}
									}
								}
								JOINT lthumb
								{
									OFFSET 0 0 0
									CHANNELS 3 Zrotation Yrotation Xrotation
									End Site
									{
										OFFSET 0.54120 -0.00000 0.54120
									}
								}
							}
						}
					}
				}
				JOINT rclavicle
				{
					OFFSET 0 0 0
					CHANNELS 3 Zrotation Yrotation Xrotation
					JOINT rhumerus
					{
						OFFSET -3.49802 0.75994 -0.32616
						CHANNELS 3 Zrotation Yrotation Xrotation
						JOINT rradius
						{
							OFFSET -5.02649 -0.00000 0.00000
							CHANNELS 3 Zrotation Yrotation Xrotation
							JOINT rwrist
							{
								OFFSET -3.36431 -0.00000 0.00000
								CHANNELS 3 Zrotation Yrotation Xrotation
								JOINT rhand
								{
									OFFSET 0 0 0
									CHANNELS 3 Zrotation Yrotation Xrotation
									JOINT rfingers
									{
										OFFSET -0.73041 -0.00000 0.00000
										CHANNELS 3 Zrotation Yrotation Xrotation
										End Site
										{
											OFFSET -0.58887 -0.00000 0.00000
										}
									}
								}
								JOINT rthumb
								{
									OFFSET 0 0 0
									CHANNELS 3 Zrotation Yrotation Xrotation
									End Site
									{
										OFFSET -0.59786 -0.00000 0.59786
									}
								}
							}
						}
					}
				}
			}
		}
	}
}
MOTION
Frames: 8
Frame Time: 0.033333
0.0000 0.0000 0.0000 0.0000 0.0000 0.0000 0.0000 0.0000 0.0000 14.0991 -0.303255 -51.0568 -12.8173 18.0839 45.3947 4.58643 -6.6176 5.69877 0.0000 0.0000 0.0000 0.0000 0.0000 0.0000 -6.77131 6.988 11.181 0.50536 2.48086 39.9879 46.3921 -15.1949 -42.1153 0.0000 0.0000 0.0000 0.0000 0.0000 0.0000 0.0000 0.0000 0.0000 0.0000 0.0000 0.0000 0.0000 0.0000 0.0000 0.0000 0.0000 0.0000 27.7721 9.10755 -15.6666 0.0000 0.0000 0.0000 -56.3445 -19.204 76.3295 105.88 -64.0396 -103.341 -6.05669 -30.871 -11.8793 0.0000 0.0000 0.0000 0.0000 0.0000 0.0000 0.0000 0.0000 0.0000 0.0000 0.0000 0.0000 58.369 -3.35087 28.4231 -67.3756 40.9645 -147.808 32.4289 -2.03072 -1.57332 0.0000 0.0000 0.0000 0.0000 0.0000 0.0000 0.0000 0.0000 0.0000 
0.0000 0.0000 0.0000 0.0000 0.0000 0.0000 0.0000 0.0000 0.0000 14.1432 -0.925964 -51.1857 -11.7268 17.7594 46.0755 4.30119 -5.48419 5.08743 0.0000 0.0000 0.0000 0.0000 0.0000 0.0000 -6.49571 6.90188 11.0248 0.627077 2.98194 40.4643 46.9284 -15.8815 -42.6505 0.0000 0.0000 0.0000 0.0000 0.0000 0.0000 0.0000 0.0000 0.0000 0.0000 0.0000 0.0000 0.0000 0.0000 0.0000 0.0000 0.0000 0.0000 26.2917 9.09486 -16.228 0.0000 0.0000 0.0000 -57.1322 -19.5017 76.9578 105.325 -63.9323 -102.864 -6.48021 -30.75 -11.2986 0.0000 0.0000 0.0000 0.0000 0.0000 0.0000 0.0000 0.0000 0.0000 0.0000 0.0000 0.0000 58.679 -2.93402 28.7696 -67.0723 41.1341 -147.862 32.2625 -1.68717 -1.14039 0.0000 0.0000 0.0000 0.0000 0.0000 0.0000 0.0000 0.0000 0.0000 
0.0000 0.0000 0.0000 0.0000 0.0000 0.0000 0.0000 0.0000 0.0000 14.0813 -1.72827 -51.0114 -10.4401 17.3325 46.4211 3.68679 -4.37356 4.39854 0.0000 0.0000 0.0000 0.0000 0.0000 0.0000 -6.4525 6.40362 10.9899 0.985741 3.36952 40.5861 47.5637 -16.2539 -42.8734 0.0000 0.0000 0.0000 0.0000 0.0000 0.0000 0.0000 0.0000 0.0000 0.0000 0.0000 0.0000 0.0000 0.0000 0.0000 0.0000 0.0000 0.0000 24.5517 8.87395 -16.9209 0.0000 0.0000 0.0000 -58.0974 -19.8796 77.5557 105.028 -64.031 -102.576 -6.9241 -30.585 -10.9907 0.0000 0.0000 0.0000 0.0000 0.0000 0.0000 0.0000 0.0000 0.0000 0.0000 0.0000 0.0000 58.7596 -2.77713 29.0303 -67.0306 41.376 -147.899 32.2269 -1.54776 -0.76866 0.0000 0.0000 0.0000 0.0000 0.0000 0.0000 0.0000 0.0000 0.0000 
0.0000 0.0000 0.0000 0.0000 0.0000 0.0000 0.0000 0.0000 0.0000 13.9896 -2.61287 -50.5719 -9.11553 16.5579 46.4688 2.79423 -2.96791 3.65757 0.0000 0.0000 0.0000 0.0000 0.0000 0.0000 -6.46621 5.86927 10.9474 1.31575 3.49888 40.4796 48.2396 -16.3948 -42.9945 0.0000 0.0000 0.0000 0.0000 0.0000 0.0000 0.0000 0.0000 0.0000 0.0000 0.0000 0.0000 0.0000 0.0000 0.0000 0.0000 0.0000 0.0000 22.699 8.54834 -17.7387 0.0000 0.0000 0.0000 -59.1931 -20.3208 78.1499 104.818 -64.2204 -102.371 -7.04722 -30.4422 -10.8382 0.0000 0.0000 0.0000 0.0000 0.0000 0.0000 0.0000 0.0000 0.0000 0.0000 0.0000 0.0000 58.6119 -2.82366 28.9408 -67.3479 41.4909 -147.874 32.0763 -1.43836 -0.519473 0.0000 0.0000 0.0000 0.0000 0.0000 0.0000 0.0000 0.0000 0.0000 
0.0000 0.0000 0.0000 0.0000 0.0000 0.0000 0.0000 0.0000 0.0000 14.0477 -3.73383 -49.924 -7.79799 15.8209 46.1487 1.70198 -1.41366 2.92979 0.0000 0.0000 0.0000 0.0000 0.0000 0.0000 -6.53248 5.20882 10.9981 1.60959 3.38986 40.0686 48.9737 -16.2522 -43.0321 0.0000 0.0000 0.0000 0.0000 0.0000 0.0000 0.0000 0.0000 0.0000 0.0000 0.0000 0.0000 0.0000 0.0000 0.0000 0.0000 0.0000 0.0000 20.8036 8.13187 -18.6763 0.0000 0.0000 0.0000 -60.3797 -20.7646 78.7584 104.711 -64.4594 -102.32 -6.84516 -30.2908 -10.8371 0.0000 0.0000 0.0000 0.0000 0.0000 0.0000 0.0000 0.0000 0.0000 0.0000 0.0000 0.0000 58.2801 -3.01948 28.4768 -67.9165 41.2514 -147.677 31.5183 -1.19463 -0.29243 0.0000 0.0000 0.0000 0.0000 0.0000 0.0000 0.0000 0.0000 0.0000 
0.0000 0.0000 0.0000 0.0000 0.0000 0.0000 0.0000 0.0000 0.0000 13.9462 -4.88113 -49.082 -6.43788 15.3052 45.4756 0.489878 -0.241585 2.3026 0.0000 0.0000 0.0000 0.0000 0.0000 0.0000 -6.62974 4.56771 10.9533 1.8066 3.08256 39.6077 49.9156 -15.9162 -43.0979 0.0000 0.0000 0.0000 0.0000 0.0000 0.0000 0.0000 0.0000 0.0000 0.0000 0.0000 0.0000 0.0000 0.0000 0.0000 0.0000 0.0000 0.0000 18.8824 7.62521 -19.719 0.0000 0.0000 0.0000 -61.5821 -21.1354 79.3367 104.85 -64.7405 -102.56 -6.5557 -30.1607 -10.9054 0.0000 0.0000 0.0000 0.0000 0.0000 0.0000 0.0000 0.0000 0.0000 0.0000 0.0000 0.0000 57.8552 -3.33877 27.6 -68.6459 40.5332 -147.253 30.6962 -0.883782 -0.160783 0.0000 0.0000 0.0000 0.0000 0.0000 0.0000 0.0000 0.0000 0.0000 
0.0000 0.0000 0.0000 0.0000 0.0000 0.0000 0.0000 0.0000 0.0000 13.6566 -6.01233 -48.0498 -4.98688 14.6079 44.524 -0.541719 0.930487 2.00987 0.0000 0.0000 0.0000 0.0000 0.0000 0.0000 -6.90627 3.28173 10.9842 2.56092 3.09423 39.1552 51.3649 -15.4272 -43.4173 0.0000 0.0000 0.0000 0.0000 0.0000 0.0000 0.0000 0.0000 0.0000 0.0000 0.0000 0.0000 0.0000 0.0000 0.0000 0.0000 0.0000 0.0000 17.0081 7.06301 -20.8383 0.0000 0.0000 0.0000 -62.6438 -21.3053 79.8095 105.55 -65.1769 -103.395 -6.29187 -30.0951 -10.9763 0.0000 0.0000 0.0000 0.0000 0.0000 0.0000 0.0000 0.0000 0.0000 0.0000 0.0000 0.0000 57.4205 -3.78114 26.4735 -69.443 39.5424 -146.685 29.954 -0.795305 -0.228299 0.0000 0.0000 0.0000 0.0000 0.0000 0.0000 0.0000 0.0000 0.0000 
0.0000 0.0000 0.0000 0.0000 0.0000 0.0000 0.0000 0.0000 0.0000 13.3349 -7.21825 -46.8161 -3.49014 13.7032 43.2201 -1.47959 2.3762 1.92975 0.0000 0.0000 0.0000 0.0000 0.0000 0.0000 -7.22237 1.90903 10.6973 3.38257 3.07737 39.0493 53.3288 -14.8991 -43.9081 0.0000 0.0000 0.0000 0.0000 0.0000 0.0000 0.0000 0.0000 0.0000 0.0000 0.0000 0.0000 0.0000 0.0000 0.0000 0.0000 0.0000 0.0000 15.2197 6.4935 -21.9781 0.0000 0.0000 0.0000 -63.5388 -21.2873 80.1837 106.659 -65.7642 -104.646 -5.99572 -30.0483 -10.8984 0.0000 0.0000 0.0000 0.0000 0.0000 0.0000 0.0000 0.0000 0.0000 0.0000 0.0000 0.0000 57.0429 -4.33728 25.2566 -70.183 38.4809 -146.039 29.5286 -0.983616 -0.352035 0.0000 0.0000 0.0000 0.0000 0.0000 0.0000 0.0000 0.0000 0.0000 
